<?xml version="1.0" encoding="UTF-8" standalone="no"?>
<!-- Created with Inkscape (http://www.inkscape.org/) -->

<svg
   width="497.75031"
   height="306.34171"
   viewBox="0 0 131.69643 81.052912"
   version="1.1"
   id="svg5"
   inkscape:version="1.2.1 (9c6d41e410, 2022-07-14)"
   sodipodi:docname="new-logo.inkscape.svg"
   inkscape:export-filename="exported-logo-circle.png"
   inkscape:export-xdpi="96"
   inkscape:export-ydpi="96"
   xmlns:inkscape="http://www.inkscape.org/namespaces/inkscape"
   xmlns:sodipodi="http://sodipodi.sourceforge.net/DTD/sodipodi-0.dtd"
   xmlns:xlink="http://www.w3.org/1999/xlink"
   xmlns="http://www.w3.org/2000/svg"
   xmlns:svg="http://www.w3.org/2000/svg">
  <sodipodi:namedview
     id="namedview7"
     pagecolor="#ffffff"
     bordercolor="#000000"
     borderopacity="0.24705882"
     inkscape:showpageshadow="2"
     inkscape:pageopacity="0.0"
     inkscape:pagecheckerboard="0"
     inkscape:deskcolor="#d1d1d1"
     inkscape:document-units="mm"
     showgrid="false"
     showguides="true"
     inkscape:zoom="1.829812"
     inkscape:cx="74.051323"
     inkscape:cy="136.07955"
     inkscape:window-width="2560"
     inkscape:window-height="1387"
     inkscape:window-x="1912"
     inkscape:window-y="-8"
     inkscape:window-maximized="1"
     inkscape:current-layer="layer1">
    <inkscape:grid
       type="xygrid"
       id="grid1098" />
  </sodipodi:namedview>
  <defs
     id="defs2">
    <clipPath
       clipPathUnits="userSpaceOnUse"
       id="clipPath909">
      <g
         id="g913">
        <g
           inkscape:label="Clip"
           id="use911"
           clip-path="url(#clipPath909)" />
      </g>
    </clipPath>
    <clipPath
       clipPathUnits="userSpaceOnUse"
       id="clipPath923">
      <g
         inkscape:label="Clip"
         id="use925" />
    </clipPath>
    <clipPath
       clipPathUnits="userSpaceOnUse"
       id="clipPath1015">
      <g
         inkscape:label="Clip"
         id="use1017" />
    </clipPath>
    <clipPath
       clipPathUnits="userSpaceOnUse"
       id="clipPath1032">
      <g
         inkscape:label="Clip"
         id="use1034" />
    </clipPath>
    <clipPath
       clipPathUnits="userSpaceOnUse"
       id="clipPath8264">
      <use
         x="0"
         y="0"
         xlink:href="#path7301"
         id="use8266"
         inkscape:label="useb"
         style="font-size:101.492px;display:inline;stroke-width:0.528602;image-rendering:crisp-edges"
         transform="matrix(0.70617298,0.70994978,-0.70804452,0.70425749,17.929492,-18.253935)" />
    </clipPath>
    <clipPath
       clipPathUnits="userSpaceOnUse"
       id="clipPath8268">
      <use
         x="0"
         y="0"
         xlink:href="#path7303"
         id="use8270"
         inkscape:label="usea"
         style="font-size:101.492px;display:inline;stroke-width:0.528602;image-rendering:crisp-edges"
         transform="matrix(0.70617298,0.70994979,-0.70804452,0.7042575,17.929492,-18.253935)" />
    </clipPath>
    <clipPath
       clipPathUnits="userSpaceOnUse"
       id="clipPath8285">
      <use
         x="0"
         y="0"
         xlink:href="#path7314"
         id="use8287"
         inkscape:label="usea"
         style="font-size:101.492px;display:inline;stroke-width:0.528602;image-rendering:crisp-edges"
         transform="matrix(0.70617299,0.7099498,-0.70804452,0.70425748,0,0)" />
    </clipPath>
    <clipPath
       clipPathUnits="userSpaceOnUse"
       id="clipPath8289">
      <use
         x="0"
         y="0"
         xlink:href="#path7312"
         id="use8291"
         inkscape:label="useb"
         style="font-size:101.492px;display:inline;stroke-width:0.528602;image-rendering:crisp-edges"
         transform="matrix(0.70617299,0.7099498,-0.70804452,0.70425748,0,0)" />
    </clipPath>
  </defs>
  <text
     xml:space="preserve"
     style="font-size:101.492px;display:none;fill:#000000;stroke-width:0.528602;image-rendering:crisp-edges"
     x="63.338825"
     y="106.67229"
     id="text1903"
     inkscape:label="darktext"
     transform="translate(-0.29761836,-25.619381)"
     sodipodi:insensitive="true"><tspan
       sodipodi:role="line"
       id="tspan1901"
       style="font-style:normal;font-variant:normal;font-weight:normal;font-stretch:normal;font-size:116.959px;font-family:Olga;-inkscape-font-specification:'Olga, Normal';font-variant-ligatures:normal;font-variant-caps:normal;font-variant-numeric:normal;font-variant-east-asian:normal;text-align:center;text-anchor:middle;fill:#2d2a26;fill-opacity:1;stroke-width:0.528602"
       x="63.338825"
       y="106.67229">BA</tspan></text>
  <rect
     style="display:none;fill:#ff0000;fill-opacity:1;stroke-width:0.780217;image-rendering:optimizeQuality"
     id="rect817"
     width="231.1796"
     height="140.21036"
     x="-119.53362"
     y="97.714279"
     transform="matrix(0.7042549,-0.7099472,0.70804193,0.7061704,-0.29761836,-25.619381)"
     clip-path="none"
     inkscape:label="red"
     sodipodi:insensitive="true" />
  <text
     xml:space="preserve"
     style="font-size:101.492px;display:none;fill:#000000;stroke-width:0.528602;image-rendering:crisp-edges"
     x="63.338825"
     y="106.67229"
     id="text433"
     inkscape:label="lighttest"
     transform="translate(-0.29761836,-25.619381)"
     sodipodi:insensitive="true"><tspan
       sodipodi:role="line"
       id="tspan431"
       style="font-style:normal;font-variant:normal;font-weight:normal;font-stretch:normal;font-size:116.959px;font-family:Olga;-inkscape-font-specification:'Olga, Normal';font-variant-ligatures:normal;font-variant-caps:normal;font-variant-numeric:normal;font-variant-east-asian:normal;text-align:center;text-anchor:middle;fill:#f2f1ef;fill-opacity:1;stroke-width:0.528602"
       x="63.338825"
       y="106.67229">BA</tspan></text>
  <g
     inkscape:label="logo-light"
     inkscape:groupmode="layer"
     id="layer1"
     transform="translate(-0.29761836,-25.619381)"
     style="display:inline;image-rendering:optimizeQuality">
    <g
       aria-label="BA"
       id="text7308"
       style="font-size:101.492px;display:inline;stroke-width:0.528602;image-rendering:crisp-edges"
       inkscape:label="lighttest">
      <path
         d="m 13.865107,72.871136 v 20.350866 h 19.181276 q 4.210524,0 7.134499,-2.923975 3.040934,-3.040934 3.040934,-7.251458 0,-4.210524 -3.040934,-7.134499 -2.923975,-3.040934 -7.134499,-3.040934 z M 33.046383,25.6197 q 5.263155,0 9.590638,1.988303 4.327483,1.988303 7.368417,5.263155 3.157893,3.274852 4.912278,7.485376 1.754385,4.210524 1.754385,8.771925 0.116959,4.444442 -1.637426,8.888884 -1.637426,4.444442 -5.380114,8.070171 3.742688,3.742688 5.380114,8.18713 1.754385,4.444442 1.637426,9.005843 0,4.444442 -1.754385,8.654966 -1.754385,4.210524 -4.912278,7.485376 -3.040934,3.274851 -7.368417,5.263151 -4.327483,1.98831 -9.590638,1.98831 H 13.865107 7.0814848 0.29786285 V 66.087514 59.420851 H 7.0814848 13.865107 33.046383 q 4.210524,0 7.134499,-2.923975 3.040934,-3.040934 3.040934,-7.251458 0,-4.210524 -3.040934,-7.134499 -2.923975,-3.040934 -7.134499,-3.040934 H 0.29786285 V 25.6197 H 7.0814848 13.865107 Z"
         style="font-size:116.959px;font-family:Olga;-inkscape-font-specification:'Olga, Normal';text-align:center;text-anchor:middle;fill:#f2f1ef"
         id="path7312"
         inkscape:label="pathb" />
      <path
         d="m 98.192623,25.6197 33.801147,81.05259 H 86.379764 L 91.993796,93.105043 H 111.75987 L 98.192623,60.7074 84.625379,93.105043 79.011347,106.67229 H 64.391472 Z"
         style="font-size:116.959px;font-family:Olga;-inkscape-font-specification:'Olga, Normal';text-align:center;text-anchor:middle;fill:#f2f1ef"
         id="path7314"
         inkscape:label="patha" />
    </g>
    <rect
       style="display:inline;image-rendering:optimizeQuality;fill:#ff0000;fill-opacity:1;stroke-width:0.780217"
       id="rect6566"
       width="231.1796"
       height="140.21036"
       x="-119.53362"
       y="97.714279"
       transform="matrix(0.7042549,-0.7099472,0.70804193,0.7061704,0,-1.2291666e-7)"
       clip-path="url(#clipPath8289)"
       inkscape:label="red"
       sodipodi:insensitive="true" />
    <rect
       style="display:inline;image-rendering:optimizeQuality;fill:#ff0000;fill-opacity:1;stroke-width:0.780217"
       id="rect8281"
       width="231.1796"
       height="140.21036"
       x="-119.53362"
       y="97.714279"
       transform="matrix(0.7042549,-0.7099472,0.70804193,0.7061704,0,-1.2291666e-7)"
       clip-path="url(#clipPath8285)"
       inkscape:label="red"
       sodipodi:insensitive="true" />
  </g>
  <g
     id="layer2"
     inkscape:label="logo-dark"
     style="display:inline"
     inkscape:groupmode="layer">
    <g
       aria-label="BA"
       transform="translate(-0.29761836,-25.619381)"
       id="text7297"
       style="font-size:101.492px;display:inline;stroke-width:0.528602;image-rendering:crisp-edges"
       inkscape:label="darktext">
      <path
         d="m 13.865107,72.871136 v 20.350866 h 19.181276 q 4.210524,0 7.134499,-2.923975 3.040934,-3.040934 3.040934,-7.251458 0,-4.210524 -3.040934,-7.134499 -2.923975,-3.040934 -7.134499,-3.040934 z M 33.046383,25.6197 q 5.263155,0 9.590638,1.988303 4.327483,1.988303 7.368417,5.263155 3.157893,3.274852 4.912278,7.485376 1.754385,4.210524 1.754385,8.771925 0.116959,4.444442 -1.637426,8.888884 -1.637426,4.444442 -5.380114,8.070171 3.742688,3.742688 5.380114,8.18713 1.754385,4.444442 1.637426,9.005843 0,4.444442 -1.754385,8.654966 -1.754385,4.210524 -4.912278,7.485376 -3.040934,3.274851 -7.368417,5.263151 -4.327483,1.98831 -9.590638,1.98831 H 13.865107 7.0814848 0.29786285 V 66.087514 59.420851 H 7.0814848 13.865107 33.046383 q 4.210524,0 7.134499,-2.923975 3.040934,-3.040934 3.040934,-7.251458 0,-4.210524 -3.040934,-7.134499 -2.923975,-3.040934 -7.134499,-3.040934 H 0.29786285 V 25.6197 H 7.0814848 13.865107 Z"
         style="font-size:116.959px;font-family:Olga;-inkscape-font-specification:'Olga, Normal';text-align:center;text-anchor:middle;fill:#2d2a26"
         id="path7301"
         inkscape:label="pathb" />
      <path
         d="m 98.192623,25.6197 33.801147,81.05259 H 86.379764 L 91.993796,93.105043 H 111.75987 L 98.192623,60.7074 84.625379,93.105043 79.011347,106.67229 H 64.391472 Z"
         style="font-size:116.959px;font-family:Olga;-inkscape-font-specification:'Olga, Normal';text-align:center;text-anchor:middle;fill:#2d2a26"
         id="path7303"
         inkscape:label="patha" />
    </g>
    <rect
       style="display:inline;fill:#ff0000;fill-opacity:1;stroke-width:0.780217"
       id="rect831"
       width="231.17961"
       height="140.21036"
       x="-101.60413"
       y="79.460342"
       transform="matrix(0.70425492,-0.70994719,0.70804193,0.7061704,0,0)"
       inkscape:label="red"
       clip-path="url(#clipPath8268)" />
    <rect
       style="display:inline;fill:#ff0000;fill-opacity:1;stroke-width:0.780217"
       id="rect8256"
       width="231.17961"
       height="140.21036"
       x="-101.60413"
       y="79.460342"
       transform="matrix(0.70425492,-0.70994719,0.70804193,0.7061704,0,0)"
       inkscape:label="red"
       clip-path="url(#clipPath8264)" />
  </g>
</svg>
